<?xml version="1.0" encoding="utf-8"?>
<!-- Generator: Adobe Illustrator 19.0.0, SVG Export Plug-In . SVG Version: 6.00 Build 0)  -->
<svg version="1.0" id="图层_1" xmlns="http://www.w3.org/2000/svg" xmlns:xlink="http://www.w3.org/1999/xlink" x="0px" y="0px"
	 viewBox="0 0 612 792" enable-background="new 0 0 612 792" xml:space="preserve">
<g>
	<path fill-rule="evenodd" clip-rule="evenodd" fill="#00C100" stroke="#00C100" stroke-miterlimit="10" d="M421.585,317.846
		c4.036,0,8.033,0.17,11.956,0.379C417.095,228.53,327.552,160,219.574,160C99.925,159.981,2.861,244.162,2.861,347.895
		c0,58.982,31.281,111.559,80.107,145.967c8.28,5.874-26.583,63.168-17.45,67.83c12.088,6.309,68.644-40.508,82.153-36.378
		c22.452,6.877,46.647,10.572,71.865,10.572c3.316,0,6.669,0,9.947-0.151c-4.225-14.097-6.518-28.913-6.518-44.241
		C223.003,395.736,312.073,317.846,421.585,317.846L421.585,317.846z M304.324,256.534c15.29,0,27.7,12.372,27.7,27.662
		c0,15.252-12.41,27.662-27.7,27.662c-15.271,0-27.644-12.41-27.644-27.662C276.68,268.906,289.052,256.534,304.324,256.534
		L304.324,256.534z M134.484,311.859c-15.365,0-27.719-12.41-27.719-27.662c0-15.29,12.372-27.662,27.719-27.662
		c15.234,0,27.605,12.372,27.605,27.662C162.089,299.448,149.718,311.859,134.484,311.859L134.484,311.859z"/>
	<path fill-rule="evenodd" clip-rule="evenodd" fill="#00C100" stroke="#00C100" stroke-miterlimit="10" d="M234.05,491.494
		c0,89.94,84.011,162.753,187.516,162.753c21.865,0,42.763-3.24,62.26-9.151c11.709-3.6,60.554,36.851,71.107,31.489
		c7.881-4.111-22.282-53.695-15.139-58.735c42.308-29.784,69.345-75.333,69.345-126.356c0-89.77-83.972-162.602-187.573-162.602
		C318.06,328.892,234.05,401.704,234.05,491.494L234.05,491.494z M471.358,436.358c0-13.187,10.724-23.93,23.949-23.93
		c13.224,0,23.892,10.723,23.892,23.93c0,13.263-10.667,23.911-23.892,23.911C482.082,460.269,471.358,449.64,471.358,436.358
		L471.358,436.358z M324.35,436.358c0-13.187,10.648-23.93,23.911-23.93c13.187,0,23.93,10.723,23.93,23.93
		c0,13.263-10.724,23.911-23.93,23.911C334.998,460.269,324.35,449.64,324.35,436.358L324.35,436.358z"/>
</g>
</svg>
