<?xml version="1.0" encoding="utf-8"?>
<!-- Generator: Adobe Illustrator 19.0.0, SVG Export Plug-In . SVG Version: 6.00 Build 0)  -->
<svg version="1.0" id="图层_1" xmlns="http://www.w3.org/2000/svg" xmlns:xlink="http://www.w3.org/1999/xlink" x="0px" y="0px"
	 viewBox="0 0 612 792" enable-background="new 0 0 612 792" xml:space="preserve">
<g>
	<path fill-rule="evenodd" clip-rule="evenodd" fill="#FFA339" d="M502.407,368.111c8.201,0,14.995-5.937,16.219-13.71
		c0.122-0.612,0.184-1.102,0.184-1.714c12.302-109.187-90.703-90.336-90.703-90.336c-9.119,0-16.464,7.222-16.464,16.464
		c0,8.997,7.344,16.219,16.464,16.219c73.934-16.158,57.715,56.858,57.715,56.858C485.759,360.889,493.226,368.111,502.407,368.111
		L502.407,368.111z M490.411,177.585c-35.559-8.262-72.281-1.102-82.563,0.796c-0.857,0.122-1.53,0.796-2.264,0.918
		c-0.306,0.122-0.612,0.428-0.612,0.428c-10.16,2.877-17.504,12.057-17.504,22.951c0,12.975,10.649,23.686,23.992,23.686
		c0,0,12.914-1.714,21.727-5.08c8.691-3.489,82.563-2.571,119.163,58.082c19.952,44.311,8.813,73.934,7.344,78.708
		c0,0-4.774,11.567-4.774,22.89c0,13.098,10.649,21.36,23.992,21.36c11.078,0,20.381-1.53,23.074-20.014h0.122
		C641.644,252.926,554.124,192.151,490.411,177.585L490.411,177.585z"/>
	<path fill-rule="evenodd" clip-rule="evenodd" fill="#FF000E" d="M239.844,622.779C139.593,627.369,58.56,577.855,58.56,511.878
		c0-66.039,81.095-118.979,181.285-123.57c100.312-4.59,181.529,36.232,181.529,102.087
		C421.373,556.312,340.156,618.311,239.844,622.779L239.844,622.779z M453.322,408.444c-23.808-4.59-12.179-17.137-12.179-17.137
		s23.257-37.885-4.651-65.426c-34.519-34.09-118.612,4.284-118.612,4.284c-32.071,9.793-23.563-4.468-19.034-28.827
		c0-28.704-9.915-77.178-95.477-48.595C117.866,281.631,44.544,382.616,44.544,382.616c-50.982,67.079-44.25,118.979-44.25,118.979
		c12.73,114.573,136.116,146.031,232.083,153.498c100.924,7.773,237.286-34.335,278.537-120.877
		C552.287,447.431,477.191,413.157,453.322,408.444L453.322,408.444z"/>
	<path fill-rule="evenodd" clip-rule="evenodd" d="M253.921,512.613c-6.426,4.713-14.26,4.101-17.565-1.653
		c-3.489-5.508-2.142-14.322,4.223-18.912c7.467-5.508,15.178-3.856,18.606,1.652C262.489,499.209,260.102,507.716,253.921,512.613
		L253.921,512.613z M194.431,562.555c-18.851,2.142-34.029-8.568-34.029-24.114c0-15.423,13.465-31.642,32.254-33.601
		c21.605-2.02,35.682,10.221,35.682,25.828C228.46,546.091,213.159,560.412,194.431,562.555L194.431,562.555z M219.831,431.702
		c-100.863,11.629-89.173,104.78-89.173,104.78s-1.04,29.5,26.991,44.495c58.939,31.581,119.775,12.424,150.377-26.623
		C338.81,515.367,320.816,420.195,219.831,431.702L219.831,431.702z"/>
</g>
</svg>
