<?xml version="1.0" encoding="utf-8"?>
<!-- Generator: Adobe Illustrator 19.0.0, SVG Export Plug-In . SVG Version: 6.00 Build 0)  -->
<svg version="1.0" id="图层_1" xmlns="http://www.w3.org/2000/svg" xmlns:xlink="http://www.w3.org/1999/xlink" x="0px" y="0px"
	 viewBox="0 0 612 792" enable-background="new 0 0 612 792" xml:space="preserve">
<g>
	<path fill-rule="evenodd" clip-rule="evenodd" fill="#006EFF" d="M401.452,662.671c-0.096,53.494-43.014,96.83-96.773,96.83
		c-53.387,0-96.677-43.156-96.773-96.83H401.452L401.452,662.671z M369.195,98.215c0-35.56-28.885-64.516-64.516-64.516
		c-35.558,0-64.516,28.885-64.516,64.516c0,3.629,0.301,7.191,0.88,10.659C151.956,139.924,78.874,235.281,78.874,348.1v88.823
		c0,0,0,127.917-31.427,129.031c-18.735,0-33.088,14.442-33.088,32.258c0,17.94,14.44,32.258,32.253,32.258h516.135
		c17.9,0,32.253-14.442,32.253-32.258c0-17.94-14.44-32.258-32.253-32.258c-32.263,0-32.263-128.134-32.263-128.134v-89.706
		c0-112.963-68.335-208.362-162.154-239.32C368.9,105.351,369.195,101.818,369.195,98.215L369.195,98.215L369.195,98.215z"/>
</g>
</svg>
