<?xml version="1.0" encoding="utf-8"?>
<!-- Generator: Adobe Illustrator 19.0.0, SVG Export Plug-In . SVG Version: 6.00 Build 0)  -->
<svg version="1.0" id="图层_1" xmlns="http://www.w3.org/2000/svg" xmlns:xlink="http://www.w3.org/1999/xlink" x="0px" y="0px"
	 viewBox="0 0 612 792" enable-background="new 0 0 612 792" xml:space="preserve">
<g>
	<path fill-rule="evenodd" clip-rule="evenodd" fill="#26C200" d="M532.484,308.348c-8.398-2.255-17.202-3.295-27.673-3.295
		l-71.733-0.287c8.899-40.636,10.397-101.601,10.397-137.959c0-42.24-34.367-76.599-76.598-76.599
		c-42.228,0-76.598,34.37-76.598,76.599v15.321c0,84.47-68.726,153.197-153.194,153.197H60.486
		c-33.794,0-61.277,27.483-61.277,61.277v245.117c0,33.794,27.483,61.274,61.277,61.274h76.598c8.469,0,15.322-6.853,15.322-15.321
		V365.178c94.218-7.821,168.518-86.853,168.518-183.061v-15.322c0-25.35,20.618-45.967,45.953-45.967
		c25.337,0,45.956,20.617,45.956,45.967c0,69.014-5.356,124.253-14.317,147.734c-1.797,4.696-1.162,9.978,1.691,14.125
		c2.839,4.143,7.536,6.648,12.568,6.659l91.979,0.36c7.773,0,14.088,0.718,19.827,2.239c40.802,10.938,65.096,53.022,54.171,93.813
		c-12.232,45.608-74.801,203.703-80.683,218.534c-8.302,13.658-22.92,21.791-39.283,21.827c-0.945,0-1.857,0.095-2.741,0.252
		l-321.361,0.012c-8.472,0-15.326,6.853-15.326,15.321s6.853,15.321,15.326,15.321l324.102-0.012c1.055,0,2.085-0.107,3.068-0.312
		c26.211-1.078,50.241-15.416,63.264-37.986c0.371-0.648,0.683-1.319,0.96-2.002c2.813-7.055,69.026-173.681,82.251-223.013
		C623.649,382.572,589.628,323.657,532.484,308.348L532.484,308.348L532.484,308.348 M121.76,672.372H60.486
		c-16.893,0-30.646-13.752-30.646-30.643V396.613c0-16.893,13.753-30.646,30.646-30.646h61.274V672.372L121.76,672.372
		L121.76,672.372 M121.76,672.372L121.76,672.372z"/>
</g>
<rect x="122.667" y="661.333" fill-rule="evenodd" clip-rule="evenodd" fill="#26C200" width="30" height="41.658"/>
<rect x="104.667" y="676.829" fill-rule="evenodd" clip-rule="evenodd" fill="#26C200" width="54.667" height="26.162"/>
</svg>
