<?xml version="1.0" encoding="utf-8"?>
<!-- Generator: Adobe Illustrator 19.0.0, SVG Export Plug-In . SVG Version: 6.00 Build 0)  -->
<svg version="1.0" id="图层_1" xmlns="http://www.w3.org/2000/svg" xmlns:xlink="http://www.w3.org/1999/xlink" x="0px" y="0px"
	 viewBox="0 0 612 792" enable-background="new 0 0 612 792" xml:space="preserve">
<path fill="#FFC533" d="M-0.666,399.669c0,168.816,136.853,305.666,305.666,305.666s305.666-136.853,305.666-305.666
	S473.816,94,305,94S-0.666,230.853-0.666,399.669z"/>
<path fill="#4F3B30" d="M130.377,312.389c-0.013,24.102,19.516,43.649,43.618,43.662c24.102,0.013,43.649-19.516,43.662-43.618
	c0-0.016,0-0.028,0-0.044c0.003-24.102-19.529-43.643-43.63-43.649c-24.102-0.003-43.643,19.529-43.649,43.63
	C130.377,312.377,130.377,312.383,130.377,312.389z"/>
<path fill="#4F3B30" d="M392.343,312.389c0,24.102,19.538,43.64,43.64,43.64s43.64-19.538,43.64-43.64
	c0.016-24.102-19.51-43.653-43.612-43.672c-24.102-0.019-43.653,19.51-43.672,43.612
	C392.343,312.348,392.343,312.367,392.343,312.389L392.343,312.389z"/>
<path fill="#4F3B30" d="M430.927,495.148c-31.745,35.69-76.988,56.462-125.681,56.462c-48.942,0-94.431-21.018-126.173-57.015
	c-5.608-6.35-15.224-6.965-21.574-1.357c-6.35,5.608-6.965,15.224-1.357,21.574c37.476,42.532,91.288,67.372,149.104,67.372
	c57.51,0,111.072-24.594,148.549-66.694c5.608-6.287,5.056-15.966-1.294-21.574C446.214,488.306,436.538,488.861,430.927,495.148
	L430.927,495.148z"/>
</svg>
