<?xml version="1.0" encoding="utf-8"?>
<!-- Generator: Adobe Illustrator 19.0.0, SVG Export Plug-In . SVG Version: 6.00 Build 0)  -->
<svg version="1.0" id="图层_1" xmlns="http://www.w3.org/2000/svg" xmlns:xlink="http://www.w3.org/1999/xlink" x="0px" y="0px"
	 viewBox="0 0 612 792" enable-background="new 0 0 612 792" xml:space="preserve">
<g>
	<path fill-rule="evenodd" clip-rule="evenodd" fill="#006EFF" d="M304.8,674.115c-5.676,0-11.35-2.173-15.673-6.496l-66.508-66.508
		c-8.668-8.668-8.668-22.679,0-31.347c8.668-8.669,22.679-8.669,31.347,0l50.834,50.834l50.834-50.834
		c4.146-4.168,9.776-6.496,15.673-6.496h155.185c12.237,0,22.169-9.932,22.169-22.169V186.392c0-12.216-9.932-22.169-22.169-22.169
		H83.108c-12.216,0-22.169,9.954-22.169,22.169V541.1c0,12.237,9.954,22.169,22.169,22.169h66.508
		c12.237,0,22.169,9.909,22.169,22.169s-9.932,22.169-22.169,22.169H83.108c-36.668,0-66.508-29.84-66.508-66.508V186.392
		c0-36.668,29.84-66.508,66.508-66.508h443.385c36.668,0,66.508,29.84,66.508,66.508V541.1c0,36.668-29.84,66.508-66.508,66.508
		H380.485l-60.012,60.012C316.15,671.943,310.476,674.115,304.8,674.115L304.8,674.115z M182.869,385.915
		c-18.334,0-33.254-14.92-33.254-33.254c0-18.334,14.92-33.254,33.254-33.254c18.334,0,33.254,14.92,33.254,33.254
		C216.123,370.995,201.203,385.915,182.869,385.915L182.869,385.915z M315.885,385.915c-18.334,0-33.254-14.92-33.254-33.254
		c0-18.334,14.92-33.254,33.254-33.254c18.334,0,33.254,14.92,33.254,33.254C349.138,370.995,334.218,385.915,315.885,385.915
		L315.885,385.915z M448.9,385.915c-18.334,0-33.254-14.92-33.254-33.254c0-18.334,14.92-33.254,33.254-33.254
		c18.334,0,33.254,14.92,33.254,33.254C482.154,370.995,467.234,385.915,448.9,385.915L448.9,385.915z"/>
</g>
</svg>
